<?xml version="1.0" encoding="UTF-8"?>
<svg width="775px" height="775px" viewBox="0 0 775 775" version="1.1" xmlns="http://www.w3.org/2000/svg" xmlns:xlink="http://www.w3.org/1999/xlink">
    <!-- Generator: Sketch 48.2 (47327) - http://www.bohemiancoding.com/sketch -->
    <title>Linked</title>
    <desc>Created with Sketch.</desc>
    <defs></defs>
    <g id="Page-1" stroke="none" stroke-width="1" fill="none" fill-rule="evenodd">
        <g id="Linked">
            <circle id="Oval-Copy" stroke="#979797" fill="#000000" cx="387.5" cy="387.5" r="386.5"></circle>
            <g id="if_linkedin_circle_black_107159" transform="translate(195.000000, 179.000000)" fill="#FFFFFF">
                <path d="M409.758533,391.838533 L409.758533,240.363333 C409.758533,159.206667 366.431867,121.441333 308.6716,121.441333 C262.059867,121.441333 241.172533,147.088133 229.532533,165.0784 L229.532533,127.649333 L141.7152,127.649333 C142.8792,152.442533 141.7152,391.838533 141.7152,391.838533 L229.532533,391.838533 L229.532533,244.295067 C229.532533,236.418667 230.1016,228.529333 232.4296,222.8904 C238.766933,207.111733 253.213467,190.776933 277.463467,190.776933 C309.2536,190.776933 321.954133,215.001067 321.954133,250.503067 L321.954133,391.851467 L409.758533,391.851467 L409.758533,391.838533 Z M49.2030667,91.5912 C79.8162667,91.5912 98.8929333,71.2858667 98.8929333,45.9236 C98.3238667,20.0181333 79.8162667,0.2948 49.7850667,0.2948 C19.7538667,0.2948 0.108133333,20.0052 0.108133333,45.9236 C0.108133333,71.2858667 19.1718667,91.5912 48.6469333,91.5912 L49.2030667,91.5912 Z M93.1117333,391.838533 L93.1117333,127.649333 L5.30733333,127.649333 L5.30733333,391.838533 L93.1117333,391.838533 Z" id="Shape"></path>
            </g>
        </g>
    </g>
</svg>